<svg width="32" height="32" viewBox="0 0 32 32" fill="none" xmlns="http://www.w3.org/2000/svg">
<path fill-rule="evenodd" clip-rule="evenodd" d="M22.6121 13.9999C22.4622 11.2817 22.0095 8.7782 21.3183 6.75153C23.9623 8.27524 25.8915 10.9002 26.4795 13.9999H22.6121ZM18.6053 13.9999C18.4503 11.5091 18.0136 9.33718 17.4232 7.73464C17.0484 6.71749 16.6499 6.03436 16.3084 5.64229C16.1639 5.47639 16.0606 5.3952 16 5.35689C15.9395 5.3952 15.8362 5.47639 15.6917 5.64229C15.3502 6.03436 14.9516 6.71749 14.5769 7.73464C13.9865 9.33718 13.5498 11.5091 13.3948 13.9999H18.6053ZM13.3948 17.9999H18.6053C18.4503 20.4908 18.0136 22.6627 17.4232 24.2652C17.0484 25.2823 16.6499 25.9655 16.3084 26.3575C16.1639 26.5234 16.0606 26.6046 16 26.6429C15.9395 26.6046 15.8362 26.5234 15.6917 26.3575C15.3502 25.9655 14.9516 25.2823 14.5769 24.2652C13.9865 22.6627 13.5498 20.4908 13.3948 17.9999ZM9.38802 13.9999C9.53785 11.2817 9.99063 8.7782 10.6818 6.75153C8.03781 8.27524 6.10857 10.9002 5.52057 13.9999H9.38802ZM5.52057 17.9999H9.38802C9.53785 20.7182 9.99063 23.2216 10.6818 25.2483C8.03781 23.7246 6.10857 21.0996 5.52057 17.9999ZM22.6121 17.9999H26.4795C25.8915 21.0996 23.9623 23.7246 21.3183 25.2483C22.0095 23.2216 22.4622 20.7182 22.6121 17.9999ZM30.6667 15.9999C30.6667 24.1001 24.1002 30.6666 16 30.6666C7.89986 30.6666 1.33337 24.1001 1.33337 15.9999C1.33337 7.89974 7.89986 1.33325 16 1.33325C24.1002 1.33325 30.6667 7.89974 30.6667 15.9999Z" fill="#0073DD"/>
</svg>
